<svg width="174" height="194" viewBox="0 0 174 194" fill="none" xmlns="http://www.w3.org/2000/svg">
<g clip-path="url(#clip0_315_660)">
<path d="M26.0073 39.9628C25.5337 39.5832 25.2581 39.0091 25.2581 38.4022V3.8597C25.2581 2.23808 27.0865 1.29061 28.4114 2.22573L85.8467 42.7657C86.5381 43.2537 87.4619 43.2537 88.1533 42.7657L145.589 2.22573C146.913 1.29061 148.742 2.23809 148.742 3.8597V38.4385C148.742 39.0246 148.485 39.5812 148.039 39.9612L123.974 60.4536C122.675 61.5594 120.677 60.6365 120.677 58.9309V57.4247C120.677 55.7758 118.794 54.8352 117.476 55.8257L88.2344 77.7971C87.5072 78.3435 86.5029 78.3304 85.7902 77.7652L56.5654 54.5864C55.2545 53.5467 53.3226 54.4803 53.3226 56.1534V57.6891C53.3226 59.3669 51.381 60.299 50.0718 59.2497L26.0073 39.9628Z" fill="url(#paint0_linear_315_660)"/>
<path d="M88.1931 100.331C87.4848 100.857 86.5152 100.857 85.8069 100.331L3.1931 38.9242C1.87356 37.9434 0 38.8852 0 40.5293V125.545C0 126.161 0.284373 126.743 0.770718 127.122L22.0288 143.687C23.3422 144.71 25.2581 143.774 25.2581 142.109V88.5733C25.2581 86.8852 27.2204 85.9564 28.5259 87.0265L85.7677 133.947C86.4888 134.538 87.5226 134.552 88.2599 133.981L145.518 89.6555C146.832 88.638 148.742 89.5748 148.742 91.237V141.744C148.742 143.47 150.783 144.386 152.072 143.237L173.33 124.307C173.756 123.927 174 123.384 174 122.813V40.5293C174 38.8852 172.126 37.9434 170.807 38.9242L88.1931 100.331Z" fill="url(#paint1_linear_315_660)"/>
<path d="M48.4726 163.674C47.9909 163.294 47.7097 162.715 47.7097 162.102V133.338C47.7097 131.689 49.5928 130.749 50.9111 131.739L85.7986 157.953C86.5103 158.488 87.4897 158.488 88.2014 157.953L123.089 131.739C124.407 130.749 126.29 131.689 126.29 133.338V162.102C126.29 162.715 126.009 163.294 125.527 163.674L88.237 193.027C87.5113 193.598 86.4887 193.598 85.7629 193.027L48.4726 163.674Z" fill="url(#paint2_linear_315_660)"/>
</g>
<defs>
<linearGradient id="paint0_linear_315_660" x1="25.2581" y1="25.3044" x2="148.742" y2="25.3044" gradientUnits="userSpaceOnUse">
<stop offset="0.4976" stop-color="#0062FF"/>
<stop offset="0.499302" stop-color="#0062FF"/>
<stop offset="0.500113" stop-color="#3381FF"/>
</linearGradient>
<linearGradient id="paint1_linear_315_660" x1="-8.04604e-07" y1="85.7537" x2="174" y2="85.7537" gradientUnits="userSpaceOnUse">
<stop offset="0.499687" stop-color="#0062FF"/>
<stop offset="0.499793" stop-color="#D9D9D9"/>
<stop offset="0.499981" stop-color="#3381FF"/>
</linearGradient>
<linearGradient id="paint2_linear_315_660" x1="47.7097" y1="149.015" x2="126.29" y2="149.015" gradientUnits="userSpaceOnUse">
<stop offset="0.499238" stop-color="#0062FF"/>
<stop offset="0.499353" stop-color="#3482FF"/>
<stop offset="0.501514" stop-color="#3381FF"/>
</linearGradient>
<clipPath id="clip0_315_660">
<rect width="174" height="194" fill="white"/>
</clipPath>
</defs>
</svg>
