<svg width="200" height="180" viewBox="0 0 200 180" fill="none" xmlns="http://www.w3.org/2000/svg">
<circle cx="80" cy="90" r="79.5" fill="#3381FF" stroke="#0062FF"/>
<circle cx="97" cy="90" r="79.5" fill="#0D0E0F" stroke="#0062FF"/>
<path d="M110 15C151.421 15 185 48.5786 185 90C185 131.421 151.421 165 110 165C68.5786 165 35 131.421 35 90C35 48.5786 68.5786 15 110 15ZM134.148 67.2725L100.625 100.795L85.8525 86.0228C83.6558 83.826 80.0942 83.826 77.8975 86.0228C75.7008 88.2195 75.7008 91.7805 77.8975 93.9772L96.6478 112.727C98.8445 114.924 102.406 114.924 104.602 112.727L142.102 75.2272C144.299 73.0308 144.299 69.4692 142.102 67.2725C139.906 65.0759 136.344 65.0759 134.148 67.2725Z" fill="#0062FF"/>
</svg>
